<svg id="Layer_1" xmlns="http://www.w3.org/2000/svg" width="195.3" height="50" viewBox="0 0 195.3 50"><style>.st0{fill:none;} .st1{fill:#006C85;} .st2{fill:#0094C2;} .st3{fill:#414142;}</style><path class="st0" d="M114.5 44.2c-.2-.2-.5-.4-.8-.5s-.6-.2-1-.2h-.6v5h.6c.4 0 .7-.1 1-.2.3-.1.6-.3.8-.5s.4-.5.5-.8.2-.6.2-1-.1-.7-.2-1c-.1-.3-.2-.6-.5-.8zM94.1 43.5h-1.5v2.1h1.5c.7 0 1-.3 1-1 .1-.7-.3-1.1-1-1.1zM73.5 47h1.8l-.9-3.1zM174.4 43.5h-1.5v2.1h1.5c.7 0 1-.3 1-1s-.4-1.1-1-1.1zM153.8 47h1.7l-.9-3.1z"/><path class="st1" d="M4 13.4C1.4 16 0 19.2 0 23v4.1c.5-1 1.2-2 2-2.9 1.9-1.9 4.2-2.9 7-2.9h19.7V41c0 2.7-1 5.1-2.9 7-.9.9-1.8 1.5-2.9 2H27c3.8 0 7-1.3 9.6-4 2.6-2.6 3.9-5.8 3.9-9.6v-27H13.6c-3.8 0-7 1.3-9.6 4z"/><path class="st2" d="M25.5 40.7v-2l-.3.3c-1.1 1.1-2.5 1.7-4.1 1.7H9.5V29.1c0-1.6.6-3 1.7-4.1l.3-.3h-2c-2.2 0-4.1.8-5.7 2.3-1.6 1.6-2.3 3.4-2.3 5.7v16h16c2.2 0 4.1-.8 5.7-2.3 1.5-1.6 2.3-3.5 2.3-5.7z"/><path class="st3" d="M195.2 30v-4.7c0-1.7-.6-3.2-1.8-4.4s-2.7-1.8-4.4-1.8h-17.5v-1.7h21.2c.7 0 1.3-.3 1.8-.8s.8-1.1.8-1.8V9.6h-25.2c-1.7 0-3.2.6-4.4 1.8-1.2 1.2-1.8 2.7-1.8 4.4v4.7c0 1.7.6 3.2 1.8 4.4s2.7 1.8 4.4 1.8h17.4v1.7h-21.1c-.7 0-1.3.3-1.8.8s-.8 1.1-.8 1.8v5.2h25.3c1.7 0 3.2-.6 4.4-1.8 1.1-1.2 1.7-2.6 1.7-4.4zM161.4 25.3c0-1.7-.6-3.2-1.8-4.4s-2.7-1.8-4.4-1.8H152V9.6h-5.2c-.7 0-1.3.3-1.8.8s-.8 1.1-.8 1.8v6.9h-6.5V2.6c0-.7-.3-1.3-.8-1.8s-1.1-.8-1.8-.8h-5.2V36.3h5.2c1.9 0 2.6-1 2.6-2.7v-6.8h16v6.9c0 .7.3 1.3.8 1.8s1.1.8 1.8.8h5.2v-11h-.1zM121.3 9.5H96v24.2c0 .7.3 1.3.8 1.8s1.1.8 1.8.8h5.2v-19h16v16.4c0 .7.3 1.3.8 1.8s1.1.8 1.8.8h5.2V15.8c0-1.7-.6-3.2-1.8-4.4-1.3-1.2-2.8-1.9-4.5-1.9zM93.8 33.7V9.5h-5.2c-.7 0-1.3.3-1.8.8s-.8 1.1-.8 1.8V36.3h5.2c.7 0 1.3-.3 1.8-.8s.8-1.1.8-1.8zM59.9 12.1V9.5h-5.2c-.7 0-1.3.3-1.8.8s-.8 1.1-.8 1.8v24.2H81c.7 0 1.3-.3 1.8-.8s.8-1.1.8-1.8v-5.2H59.9V12.1zM73.5 42.1l-2.3 7.8h1.5l.4-1.4h2.6l.4 1.4h1.5l-2.3-7.7-1.8-.1zm0 4.9l.9-3.1.9 3.1h-1.8zM56.1 45.2h-2.6v-3.1h-1.3v7.8h1.3v-3.3h2.6v3.3h1.4v-7.8h-1.4zM96.2 45.9c.2-.4.4-.8.4-1.4 0-.8-.2-1.4-.6-1.8-.4-.4-1-.6-1.7-.6h-2.9v7.8h1.4v-3h1.1l1.4 2.9h1.5l-1.5-3.1c.3-.1.6-.4.9-.8zm-2.1-.3h-1.5v-2.1h1.5c.7 0 1 .4 1 1.1.1.6-.3 1-1 1zM176.4 45.9c.2-.4.4-.8.4-1.4 0-.8-.2-1.4-.6-1.8-.4-.4-1-.6-1.7-.6h-3v7.8h1.4v-3h1.1l1.4 2.9h1.5l-1.5-3.1c.4-.1.8-.4 1-.8zm-2-.3h-1.5v-2.1h1.5c.7 0 1 .4 1 1.1 0 .6-.4 1-1 1zM153.7 42.1l-2.2 7.8h1.5l.4-1.4h2.6l.4 1.4h1.5l-2.3-7.7-1.9-.1zm.1 4.9l.9-3.1.9 3.1h-1.8zM195.3 43.5v-1.4H191v7.8h4.3v-1.4h-2.9v-1.9h1.8v-1.4h-1.8v-1.7zM136.4 48l-1.3-5.9h-1.4l-1.2 5.9-1.3-5.9h-1.5l1.9 7.8h1.7l1.1-4.6 1.1 4.6h1.8l1.9-7.8h-1.5zM115.6 43.2c-.3-.3-.7-.6-1.1-.8-.4-.2-.9-.3-1.5-.3h-2.2v7.8h2.2c.5 0 1-.1 1.5-.3s.8-.4 1.2-.8c.3-.3.6-.7.8-1.2s.3-1 .3-1.6c0-.5-.1-1.1-.3-1.5-.3-.5-.5-.9-.9-1.3zm-.5 3.8c-.1.3-.3.6-.5.8s-.5.4-.8.5-.6.2-1 .2h-.6v-5h.6c.3 0 .7.1 1 .2.3.1.6.3.8.5s.4.5.5.8.2.6.2 1c-.1.4-.1.7-.2 1z"/></svg>